<svg width="40" height="40" viewBox="0 0 40 40" fill="none" xmlns="http://www.w3.org/2000/svg">
  <defs>
    <linearGradient id="exteriorGradient" x1="8" y1="6" x2="32" y2="34" gradientUnits="userSpaceOnUse">
      <stop stop-color="#8B5CF6" />
      <stop offset="1" stop-color="#4C1D95" />
    </linearGradient>
  </defs>
  <rect x="4" y="4" width="32" height="32" rx="10" fill="url(#exteriorGradient)" />
  <path d="M24 12C26.7614 12 29 14.2386 29 17C29 20.866 26 24 20 29C14 24 11 20.866 11 17C11 14.2386 13.2386 12 16 12C18.0846 12 19.7206 13.1808 20 15C20.2794 13.1808 21.9154 12 24 12Z" stroke="white" stroke-width="2" fill="rgba(255,255,255,0.12)" />
  <path d="M16 17C16 15.8954 16.8954 15 18 15" stroke="white" stroke-width="2" stroke-linecap="round" />
  <path d="M24 15C25.1046 15 26 15.8954 26 17" stroke="white" stroke-width="2" stroke-linecap="round" />
</svg>
